REM MD5 5900bd0fd5be7d3cbec8aa262aa92ae7
FILE "Shadow Master (Europe) (En,Fr,De,Es,It) (Demo).bin" BINARY
  TRACK 01 MODE2/2352
    INDEX 01 00:00:00
  TRACK 02 AUDIO
    INDEX 00 53:11:08
    INDEX 01 53:13:08
  TRACK 03 AUDIO
    INDEX 00 57:33:55
    INDEX 01 57:35:55
  TRACK 04 AUDIO
    INDEX 00 61:57:13
    INDEX 01 61:59:13
  TRACK 05 AUDIO
    INDEX 00 66:23:59
    INDEX 01 66:25:59
REM LEADOUT 70:54:66
